<svg id="Layer_1" data-name="Layer 1" xmlns="http://www.w3.org/2000/svg" viewBox="0 0 144 144"><defs><style>.cls-1{fill:#1d3654;}.cls-2{fill:#929497;}</style></defs><title>ar_actiongroup</title><path class="cls-1" d="M50.09,80.1a9.1,9.1,0,0,1,9.09,9.09v30.92a9.1,9.1,0,0,1-9.09,9.09H19.17a9.1,9.1,0,0,1-9.09-9.09V89.19a9.1,9.1,0,0,1,9.09-9.09H50.09m0-6.55H19.17A15.64,15.64,0,0,0,3.53,89.19v30.92a15.64,15.64,0,0,0,15.64,15.64H50.09a15.64,15.64,0,0,0,15.64-15.64V89.19A15.64,15.64,0,0,0,50.09,73.55Z"/><path class="cls-2" d="M27.64,124.15A5.63,5.63,0,0,1,22,118.53V90.77a5.61,5.61,0,0,1,9.08-4.41l17.64,13.88a5.61,5.61,0,0,1,0,8.82L31.1,122.94A5.58,5.58,0,0,1,27.64,124.15Zm.93-31.46v23.91l15.19-12Z"/><path class="cls-1" d="M87.55,40.82H56.63A15.64,15.64,0,0,0,41,56.46V68.67h6.55V56.46a9.1,9.1,0,0,1,9.09-9.09H87.55a9.1,9.1,0,0,1,9.09,9.09V87.37a9.1,9.1,0,0,1-9.09,9.09H70.79V103H87.55a15.64,15.64,0,0,0,15.64-15.64V56.46A15.64,15.64,0,0,0,87.55,40.82Z"/><path class="cls-2" d="M86.2,67.51,68.56,53.62A5.61,5.61,0,0,0,59.48,58v12.8A20.49,20.49,0,0,1,66,76V60l15.19,12-12,9.42a20.35,20.35,0,0,1,1.51,7.15L86.2,76.32a5.61,5.61,0,0,0,0-8.82Z"/><path class="cls-1" d="M124.83,8.25H93.91A15.64,15.64,0,0,0,78.27,23.89V36.1h6.55V23.89a9.1,9.1,0,0,1,9.09-9.09h30.92a9.1,9.1,0,0,1,9.09,9.09V54.81a9.1,9.1,0,0,1-9.09,9.09H108.07v6.55h16.76a15.64,15.64,0,0,0,15.64-15.64V23.89A15.64,15.64,0,0,0,124.83,8.25Z"/><path class="cls-2" d="M123.48,34.94,105.85,21.06a5.61,5.61,0,0,0-9.08,4.41v12.8a20.49,20.49,0,0,1,6.55,5.16v-16l15.19,12-12,9.42A20.35,20.35,0,0,1,108,55.91l15.44-12.15a5.61,5.61,0,0,0,0-8.82Z"/></svg>