<svg id="Layer_1" data-name="Layer 1" xmlns="http://www.w3.org/2000/svg" viewBox="0 0 144 144"><defs><style>.cls-1{fill:#2f2d2c;}</style></defs><title>ar_approvalrequest_invert</title><path class="cls-1" d="M135.24,9.16c-5.86-4.48-11.38-4.73-15.08-3.68-16.3,4.64-44.71,69.46-44.71,69.46S60.82,54.87,53.33,50.24c-7-4.34-15.8-3.26-19.77,2.41-4.58,6.54-3,18.11,2.77,17,15.79-3.19,30.28,32.64,34.89,35.65a5.77,5.77,0,0,0,4.06,1.18c1,0,2.24-1.28,4.06-3.1,11.19-11.23,36.54-78.14,58.06-83C139.79,19.84,142,14.41,135.24,9.16Z"/><path d="M117.34,51A55.11,55.11,0,1,1,93.06,26.33l4.72-7.41a63.75,63.75,0,1,0,25,23.72Z"/></svg>