<svg id="Layer_1" data-name="Layer 1" xmlns="http://www.w3.org/2000/svg" viewBox="0 0 144 144"><defs><style>.cls-1{fill:#2f2d2c;}</style></defs><title>ar_actiontemplate_invert</title><path d="M109.46,18.53a16,16,0,0,1,16,16v74.93a16,16,0,0,1-16,16H34.54a16,16,0,0,1-16-16V34.54a16,16,0,0,1,16-16h74.93m0-8.73H34.54A24.73,24.73,0,0,0,9.8,34.54v74.93A24.73,24.73,0,0,0,34.54,134.2h74.93a24.73,24.73,0,0,0,24.73-24.73V34.54A24.73,24.73,0,0,0,109.46,9.8Z"/><path class="cls-1" d="M54.38,108.82a9.07,9.07,0,0,1-9.05-9.05V44.23A9,9,0,0,1,60,37.13L95.23,64.9a9,9,0,0,1,0,14.21L60,106.87A9,9,0,0,1,54.38,108.82Zm0-64.9a.35.35,0,0,0-.15,0,.26.26,0,0,0-.17.28V99.77a.31.31,0,0,0,.5.24L89.83,72.24a.31.31,0,0,0,0-.49L54.55,44A.28.28,0,0,0,54.38,43.91Z"/></svg>