<svg id="Layer_1" data-name="Layer 1" xmlns="http://www.w3.org/2000/svg" viewBox="0 0 144 144"><defs><style>.cls-1{fill:#929497;}.cls-2{fill:#7aa61b;}.cls-3{fill:#f2280c;}</style></defs><title>ar_approver</title><circle class="cls-1" cx="72" cy="33.42" r="28.87"/><path class="cls-2" d="M137.89,97.29a7.5,7.5,0,0,0-6.65-1.62c-7.18,2-19.7,30.61-19.7,30.61s-6.45-8.85-9.75-10.89c-3.1-1.91-7-1.44-8.71,1.06-2,2.88-1.31,8,1.22,7.47,7-1.41,13.34,14.38,15.37,15.71a2.54,2.54,0,0,0,1.79.52c.42,0,1-.56,1.79-1.37,4.93-4.95,16.1-34.44,25.59-36.56C139.89,102,140.87,99.61,137.89,97.29Z"/><path class="cls-3" d="M47.64,123.78c-1.55,0-2.41.94-3.57,1.62A10.33,10.33,0,0,1,40,126.75,4.79,4.79,0,0,1,35.29,125a6.2,6.2,0,0,1-1.18-1.77c-.18-.48-.65-2.1-.65-2.1s10.84-7.27,12.31-8.42c2.85-2.24,5.78-4.74,7.42-7.82,1.44-2.7,1.64-6.14-1.07-8.32S45,95.53,45.25,99c.16,2.72-1.45,4.37-3.62,6.33A86.67,86.67,0,0,1,31.38,113c-.21-1.76-.42-8.84-.83-11.09-.3-1.68-2.24-2.57-4.16-2.59-4-.05-4.89,3.25-4.84,6a67.28,67.28,0,0,0,1.05,11.29c.17.93.47,1.48-.06,2.18A12.13,12.13,0,0,1,20,120.51c-1.64,1.11-3.27,2.24-4.85,3.42a37.4,37.4,0,0,0-6.6,5.88,8.34,8.34,0,0,0-2.25,5.06c0,2.53,2.05,5.55,5.32,5.28,3.75-.32,3.24-4.22,5-6.37,2.43-2.93,5.83-5.31,9.06-7.53,3.14,6.09,9.17,10,16.94,7.65a23,23,0,0,0,7-3.5C52.36,128.33,52.24,123.78,47.64,123.78Z"/><path class="cls-1" d="M95.18,127.84h-.09a5.62,5.62,0,0,1-6.22-3.13,10.91,10.91,0,0,1,.93-10.56,9.51,9.51,0,0,1,8-3.94,11.67,11.67,0,0,1,6.13,1.77c2,1.23,4.59,4.05,6.78,6.67,1.23-2.55,2.79-5.65,4.52-8.83,1.94-3.56,3.66-6.41,5.19-8.7-5.69-18.19-11.92-32.75-24.68-40.64a2.93,2.93,0,0,0-3.32.14,34.14,34.14,0,0,1-41.07.18A2.93,2.93,0,0,0,48,60.7C36.69,67.8,30.5,80,25.27,95.33a10.26,10.26,0,0,1,1-.05h.15c4.19.06,7.42,2.42,8,5.88a44.83,44.83,0,0,1,.44,4.49c1.41-1,2.76-2.12,4-3.25,2.14-1.93,2.35-2.44,2.31-3.12a7.23,7.23,0,0,1,1.92-5.46,7.87,7.87,0,0,1,5.74-2.38,9.16,9.16,0,0,1,5.72,2c3.85,3.1,4.69,8.46,2.09,13.32-2,3.67-5.23,6.53-8.48,9.08-1.1.86-6.31,4.4-9.75,6.72.19.2.28.2.57.2l.47,0a6.3,6.3,0,0,0,2.52-.83c.17-.1.36-.23.59-.39a8.38,8.38,0,0,1,5-1.78c3.58,0,6.43,1.86,7.43,4.86a8,8,0,0,1-1.9,7.91,111.35,111.35,0,0,0,18.56,1.61,112.35,112.35,0,0,0,26.78-3.79C96.38,127.92,95.3,127.84,95.18,127.84Z"/></svg>