<svg id="Layer_1" data-name="Layer 1" xmlns="http://www.w3.org/2000/svg" viewBox="0 0 144 144"><defs><style>.cls-1{fill:#929497;}</style></defs><title>ar_rule</title><path class="cls-1" d="M129.56,24.25,118.62,10.53C110.09,14,95.8,17.6,84.44,18c-2.48.1-1.67-7.18-2.14-10.44H61.7C61.23,10.87,62,18.14,59.56,18c-11.36-.45-25.65-4-34.18-7.52L14.44,24.25c2.92,10.19,6.84,18,7,24.4.29,9.14-7,19.23-6.54,37.58.94,41.21,26.77,38.53,40.14,41.76,9.42,2.28,15.87,8.36,16.92,8.42s7.5-6.15,16.92-8.42c13.37-3.23,39.2-.55,40.14-41.76.42-18.35-6.83-28.44-6.54-37.58C122.72,42.29,126.64,34.44,129.56,24.25ZM95,107.44,72,95.33,49,107.44l4.4-25.65L34.73,63.63l25.75-3.74L72,36.56,83.52,59.89l25.75,3.74L90.63,81.8Z"/></svg>