<svg id="Layer_1" data-name="Layer 1" xmlns="http://www.w3.org/2000/svg" viewBox="0 0 144 144"><defs><style>.cls-1{fill:#2f2d2c;}</style></defs><title>ar_regardingconfig_invert</title><path d="M135.32,112.56l-42-42A46.71,46.71,0,1,0,71.27,93.25l41.68,41.68a15.44,15.44,0,0,0,21.84,0l.53-.53A15.44,15.44,0,0,0,135.32,112.56ZM13.2,51.25A37.66,37.66,0,1,1,50.86,88.91,37.7,37.7,0,0,1,13.2,51.25Z"/><path class="cls-1" d="M71.34,71.8,68.57,67a23.82,23.82,0,0,0,5.32-10.38l5.5-.54a4.46,4.46,0,0,0,4-4.87l-.6-6.09a4.46,4.46,0,0,0-4.87-4l-5.5.54a23.65,23.65,0,0,0-4.74-7l2.5-4.92a4.46,4.46,0,0,0-2-6L62.77,21a4.46,4.46,0,0,0-6,2l-2.49,4.9a23.64,23.64,0,0,0-8.27.23l-2.76-4.76a4.46,4.46,0,0,0-6.09-1.62l-5.29,3.07a4.46,4.46,0,0,0-1.62,6.09L33,35.64a23.82,23.82,0,0,0-5.34,10.43l-5.45.54a4.46,4.46,0,0,0-4,4.87l.6,6.09a4.46,4.46,0,0,0,4.87,4L29.15,61a23.65,23.65,0,0,0,4.77,7l-2.49,4.9a4.46,4.46,0,0,0,2,6l5.45,2.77a4.46,4.46,0,0,0,6-2l2.5-4.92a23.65,23.65,0,0,0,8.24-.24l2.77,4.78A4.46,4.46,0,0,0,64.43,81l5.29-3.07A4.46,4.46,0,0,0,71.34,71.8ZM45.41,61.91a11.85,11.85,0,1,1,15.93-5.2A11.85,11.85,0,0,1,45.41,61.91Z"/></svg>