<svg id="Layer_1" data-name="Layer 1" xmlns="http://www.w3.org/2000/svg" viewBox="0 0 144 144"><defs><style>.cls-1{fill:#fff;}</style></defs><title>corr_group_invert</title><rect class="cls-1" x="8.15" y="11.76" width="27.48" height="3.93"/><rect class="cls-1" x="8.15" y="21.1" width="27.78" height="3.93"/><rect class="cls-1" x="16.21" y="30.44" width="46.9" height="3.93"/><rect class="cls-1" x="8.15" y="39.77" width="54.97" height="3.93"/><rect class="cls-1" x="8.15" y="49.11" width="54.97" height="3.93"/><rect class="cls-1" x="49.52" y="11.76" width="13.59" height="3.93"/><rect class="cls-1" x="80.29" y="11.76" width="27.48" height="3.93"/><rect class="cls-1" x="80.29" y="21.1" width="27.78" height="3.93"/><rect class="cls-1" x="88.36" y="30.44" width="46.9" height="3.93"/><rect class="cls-1" x="80.29" y="39.77" width="54.97" height="3.93"/><rect class="cls-1" x="80.29" y="49.11" width="54.97" height="3.93"/><rect class="cls-1" x="107.78" y="67.79" width="23.55" height="3.93"/><rect class="cls-1" x="108.07" y="77.13" width="23.25" height="3.93"/><rect class="cls-1" x="121.67" y="11.76" width="13.59" height="3.93"/><rect class="cls-1" x="44.22" y="61.27" width="27.48" height="3.93"/><rect class="cls-1" x="44.22" y="70.61" width="27.78" height="3.93"/><rect class="cls-1" x="52.29" y="79.95" width="46.9" height="3.93"/><rect class="cls-1" x="44.22" y="89.28" width="54.97" height="3.93"/><rect class="cls-1" x="44.22" y="98.62" width="54.97" height="3.93"/><rect class="cls-1" x="44.22" y="107.96" width="36.68" height="3.93"/><rect class="cls-1" x="71.71" y="117.3" width="23.55" height="3.93"/><rect class="cls-1" x="72" y="126.63" width="23.25" height="3.93"/><rect class="cls-1" x="85.59" y="61.27" width="13.59" height="3.93"/><path class="cls-1" d="M140.8,7.17H75.34V56.68H68.66V7.17H3.2V87.32H39.27v49.51h65.46V87.32H140.8ZM5,85.41V9.08H66.82v47.6H39.27v1.77H8.15v3.93H39.27v5.4H35.63v3.93h3.64v5.4H35.93v3.93h3.34v4.35Zm97.84,49.51H41.11V58.59h61.77ZM139,85.41H104.73v-23H117V58.45H104.73V56.68H77.18V9.08H139Z"/></svg>