<svg id="Layer_1" data-name="Layer 1" xmlns="http://www.w3.org/2000/svg" viewBox="0 0 144 144"><defs><style>.cls-1{fill:#fff;}</style></defs><title>corr_group</title><rect class="cls-1" x="8.15" y="11.76" width="27.48" height="3.93"/><rect class="cls-1" x="8.15" y="21.1" width="27.78" height="3.93"/><rect class="cls-1" x="16.21" y="30.44" width="46.9" height="3.93"/><rect class="cls-1" x="8.15" y="39.77" width="54.97" height="3.93"/><rect class="cls-1" x="8.15" y="49.11" width="54.97" height="3.93"/><rect class="cls-1" x="49.52" y="11.76" width="13.59" height="3.93"/><rect class="cls-1" x="80.29" y="11.76" width="27.48" height="3.93"/><rect class="cls-1" x="80.29" y="21.1" width="27.78" height="3.93"/><rect class="cls-1" x="88.36" y="30.44" width="46.9" height="3.93"/><rect class="cls-1" x="80.29" y="39.77" width="54.97" height="3.93"/><rect class="cls-1" x="80.29" y="49.11" width="54.97" height="3.93"/><rect class="cls-1" x="107.78" y="67.79" width="23.55" height="3.93"/><rect class="cls-1" x="108.07" y="77.13" width="23.25" height="3.93"/><rect class="cls-1" x="121.67" y="11.76" width="13.59" height="3.93"/><rect class="cls-1" x="35.63" y="67.79" width="3.64" height="3.93"/><rect class="cls-1" x="8.15" y="58.45" width="31.12" height="3.93"/><polygon class="cls-1" points="75.34 7.17 75.34 56.68 77.18 56.68 77.18 9.08 138.96 9.08 138.96 85.41 104.73 85.41 104.73 87.32 140.8 87.32 140.8 7.17 75.34 7.17"/><rect class="cls-1" x="35.93" y="77.13" width="3.34" height="3.93"/><rect class="cls-1" x="104.73" y="58.45" width="12.24" height="3.93"/><polygon class="cls-1" points="5.04 85.41 5.04 9.08 66.82 9.08 66.82 56.68 68.66 56.68 68.66 7.17 3.2 7.17 3.2 87.32 39.27 87.32 39.27 85.41 5.04 85.41"/><rect class="cls-1" x="44.22" y="61.27" width="27.48" height="3.93"/><rect class="cls-1" x="44.22" y="70.61" width="27.78" height="3.93"/><rect class="cls-1" x="52.29" y="79.95" width="46.9" height="3.93"/><rect class="cls-1" x="44.22" y="89.28" width="54.97" height="3.93"/><rect class="cls-1" x="44.22" y="98.62" width="54.97" height="3.93"/><rect class="cls-1" x="44.22" y="107.96" width="36.68" height="3.93"/><rect class="cls-1" x="71.71" y="117.3" width="23.55" height="3.93"/><rect class="cls-1" x="72" y="126.63" width="23.25" height="3.93"/><rect class="cls-1" x="85.59" y="61.27" width="13.59" height="3.93"/><path class="cls-1" d="M104.73,62.38v-5.7H39.27v80.15h65.46V62.38Zm-1.84,72.53H41.11V58.59h61.77Z"/></svg>