<svg id="Layer_1" data-name="Layer 1" xmlns="http://www.w3.org/2000/svg" viewBox="0 0 144 144"><defs><style>.cls-1{fill:#fff;}</style></defs><title>keyphrase_invert</title><path class="cls-1" d="M35.88,48.1V31a7.07,7.07,0,0,0-7.17-7H11.13A7.07,7.07,0,0,0,4,31V59a28.18,28.18,0,0,0,8.61,20.21h0a4.15,4.15,0,0,0,5.75,0l5.74-5.58a3.87,3.87,0,0,0,0-5.59l-.71-.69A10.28,10.28,0,0,1,20.2,60V56.65a1.6,1.6,0,0,1,1.63-1.58h6.88A7.07,7.07,0,0,0,35.88,48.1Z"/><path class="cls-1" d="M72.84,48.1V31a7.07,7.07,0,0,0-7.17-7H48.09a7.07,7.07,0,0,0-7.17,7V59a28.18,28.18,0,0,0,8.61,20.21h0a4.15,4.15,0,0,0,5.75,0L61,73.65a3.87,3.87,0,0,0,0-5.59l-.71-.69A10.28,10.28,0,0,1,57.16,60V56.65a1.6,1.6,0,0,1,1.63-1.58h6.88A7.07,7.07,0,0,0,72.84,48.1Z"/><path class="cls-1" d="M108.12,85.67V68.58a7.07,7.07,0,0,1,7.17-7h17.58a7.07,7.07,0,0,1,7.17,7v28a28.18,28.18,0,0,1-8.61,20.21h0a4.15,4.15,0,0,1-5.75,0l-5.74-5.58a3.87,3.87,0,0,1,0-5.59l.71-.69a10.28,10.28,0,0,0,3.14-7.37V94.22a1.6,1.6,0,0,0-1.63-1.58h-6.88A7.07,7.07,0,0,1,108.12,85.67Z"/><path class="cls-1" d="M71.16,85.67V68.58a7.07,7.07,0,0,1,7.17-7H95.91a7.07,7.07,0,0,1,7.17,7v28a28.18,28.18,0,0,1-8.61,20.21h0a4.15,4.15,0,0,1-5.75,0L83,111.23a3.87,3.87,0,0,1,0-5.59l.71-.69a10.28,10.28,0,0,0,3.14-7.37V94.22a1.6,1.6,0,0,0-1.63-1.58H78.33A7.07,7.07,0,0,1,71.16,85.67Z"/></svg>