<svg id="Layer_1" data-name="Layer 1" xmlns="http://www.w3.org/2000/svg" viewBox="0 0 144 144"><defs><style>.cls-1{fill:#fff;}</style></defs><title>language_invert</title><path class="cls-1" d="M85.33,72.06c0-20.08-18.67-36.21-41.54-36.21S2.25,52,2.25,72.06c0,19.47,17.6,35.33,39.68,36.17,0,0,1.21.12,1.23.14l15.93,11.68a2.35,2.35,0,0,0,3.71-2.26l-2-12.72.48-.18C75.84,99,85.33,86.31,85.33,72.06ZM52.24,87.87a20.79,20.79,0,0,1-6.27,2,2.35,2.35,0,0,1-.61-4.66,14.14,14.14,0,0,0,1.46-.3,17,17,0,0,0,3.34-1.21c2.74-1.35,4.23-3.17,4.23-5.65,0-3.22-2.34-5.34-5.7-6.1a32.6,32.6,0,0,1-9.62,12.75c-5.26,3.92-10.82,4-13.55-.81C23,79.46,25,75.34,29.65,72.15a28,28,0,0,1,4-2.23A43,43,0,0,1,34,63.43a24.9,24.9,0,0,1-6.49-1,2.35,2.35,0,1,1,1.43-4.48,21.21,21.21,0,0,0,5.88.85q.42-1.87,1-3.81a2.35,2.35,0,1,1,4.5,1.36q-.34,1.14-.62,2.25a66.64,66.64,0,0,0,7.59-1.2c1.45-.31,2.8-.64,4-1,.73-.2,1.24-.35,1.5-.43a2.35,2.35,0,1,1,1.4,4.49c-.32.1-.89.27-1.68.48-1.3.35-2.74.7-4.27,1a68.52,68.52,0,0,1-9.51,1.39,39.46,39.46,0,0,0-.38,4.78c.5-.15,1-.29,1.47-.42h0c.49-.13,1-.24,1.43-.34a22,22,0,0,1,4.36-.48q.31-.87.58-1.77a2.35,2.35,0,1,1,4.5,1.36q-.15.49-.31,1c5,1.3,8.68,4.85,8.68,10.55C59.09,82.56,56.42,85.81,52.24,87.87Z"/><path class="cls-1" d="M40.46,72.41h0c-.61.17-1.23.37-1.85.58a31.2,31.2,0,0,0,.93,4.64l0,.1a31.26,31.26,0,0,0,4-6q-.64.09-1.3.23C41.66,72.09,41.07,72.24,40.46,72.41Z"/><path class="cls-1" d="M34.13,74.93A20.31,20.31,0,0,0,32.3,76c-2.9,2-3.72,3.7-2.7,5.48s3.15,1.81,6.17-.28c-.24-.64-.5-1.42-.76-2.32A35.52,35.52,0,0,1,34.13,74.93Z"/><path class="cls-1" d="M100.22,24.08c-12.89,0-24.44,5.12-32.07,13.19C81.25,44.45,90,57.27,90,72.06a37.36,37.36,0,0,1-6.89,21.49L81.21,106a2.35,2.35,0,0,0,3.71,2.26L100.85,96.6s1.23-.14,1.23-.14c22.08-.85,39.68-16.7,39.68-36.17C141.76,40.21,123.09,24.08,100.22,24.08Zm16.25,51.37a2.35,2.35,0,0,1-3-1.49l-2.6-7.8h-9.14L99.15,74a2.35,2.35,0,0,1-4.46-1.49l9.4-28.21a2.35,2.35,0,0,1,4.46,0L118,72.48A2.35,2.35,0,0,1,116.47,75.45Z"/><polygon class="cls-1" points="103.33 61.47 109.33 61.47 106.34 52.49 103.33 61.47"/></svg>