<svg id="Layer_1" data-name="Layer 1" xmlns="http://www.w3.org/2000/svg" viewBox="0 0 144 144"><defs><style>.cls-1{fill:#fff;}</style></defs><title>setting_invert</title><path class="cls-1" d="M124.92,84.22a54.13,54.13,0,0,0,0-24.45l4.93-2.84,6.37-8.11L124.18,28,114,29.44,109,32.29A54.24,54.24,0,0,0,87.87,20V14.37L84,4.8H60l-3.84,9.57V20A54.24,54.24,0,0,0,35,32.29L30,29.44,19.82,28l-12,20.84,6.37,8.11,4.93,2.84a54.13,54.13,0,0,0,0,24.45l-4.93,2.84L7.79,95.18l12,20.84L30,114.56,35,111.71A54.24,54.24,0,0,0,56.13,124v5.67L60,139.2H84l3.84-9.57V124A54.24,54.24,0,0,0,109,111.71l4.93,2.85L124.18,116l12-20.84-6.37-8.11ZM72,110.46A38.46,38.46,0,1,1,110.46,72,38.46,38.46,0,0,1,72,110.46Z"/></svg>